# xmcd CD database file
#
# Track frame offsets:
#	150
#	15785
#	36185
#	55623
#	78699
#	96497
#	121040
#	144827
#	166708
#	180227
#	201994
#	223620
#	245565
#	268766
#	290210
#
# Disc length: 4106 seconds
#
# Revision: 0
# Processed by: cddbd v1.4PL0 Copyright (c) Steve Scherf et al.
# Submitted via: Feurio! 1.62 - http://www.feurio.com
#
DISCID=cd10080f
DTITLE=Eric Clapton - Reptile
DYEAR=1900
DGENRE=
TTITLE0=Reptile
TTITLE1=Got you on my mind
TTITLE2=Travelin' light
TTITLE3=Believe in life
TTITLE4=Come back baby
TTITLE5=Broken down
TTITLE6=Find myself
TTITLE7=Ain't gonna stand for it
TTITLE8=I wanna little girl
TTITLE9=Second nature
TTITLE10=Don't let me be lonely
TTITLE11=Modern girl
TTITLE12=Superman inside
TTITLE13=Son and Sylvia
TTITLE14=I got lost (acoustic)
EXTD=
EXTT0=
EXTT1=
EXTT2=
EXTT3=
EXTT4=
EXTT5=
EXTT6=
EXTT7=
EXTT8=
EXTT9=
EXTT10=
EXTT11=
EXTT12=
EXTT13=
EXTT14=
PLAYORDER=
